<mxfile host="app.diagrams.net" modified="2023-04-11T23:56:31.658Z" agent="Mozilla/5.0 (Macintosh; Intel Mac OS X 10_15_7) AppleWebKit/605.1.15 (KHTML, like Gecko) Version/16.1 Safari/605.1.15" etag="uH9pX_H_MsE_5JKO6fw6" version="21.1.5" type="github">
  <diagram name="Page-1" id="An3f-qXtyZDtz-f_VdAW">
    <mxGraphModel dx="2389" dy="934" grid="1" gridSize="10" guides="1" tooltips="1" connect="1" arrows="1" fold="1" page="1" pageScale="1" pageWidth="1100" pageHeight="850" math="0" shadow="0">
      <root>
        <mxCell id="0" />
        <mxCell id="1" parent="0" />
        <mxCell id="X-iabtBRZktdST__aqZO-15" value="" style="rounded=0;whiteSpace=wrap;html=1;" vertex="1" parent="1">
          <mxGeometry x="-180" y="20" width="1440" height="710" as="geometry" />
        </mxCell>
        <mxCell id="X-iabtBRZktdST__aqZO-12" value="Teams" style="rounded=1;whiteSpace=wrap;html=1;hachureGap=4;fontFamily=Architects Daughter;fontSource=https%3A%2F%2Ffonts.googleapis.com%2Fcss%3Ffamily%3DArchitects%2BDaughter;fontSize=20;" vertex="1" parent="1">
          <mxGeometry x="-90" y="100" width="640" height="80" as="geometry" />
        </mxCell>
        <mxCell id="X-iabtBRZktdST__aqZO-16" value="" style="rounded=1;whiteSpace=wrap;html=1;hachureGap=4;fontFamily=Architects Daughter;fontSource=https%3A%2F%2Ffonts.googleapis.com%2Fcss%3Ffamily%3DArchitects%2BDaughter;fontSize=20;" vertex="1" parent="1">
          <mxGeometry x="-90" y="370" width="640" height="80" as="geometry" />
        </mxCell>
        <mxCell id="X-iabtBRZktdST__aqZO-17" value="" style="rounded=1;whiteSpace=wrap;html=1;hachureGap=4;fontFamily=Architects Daughter;fontSource=https%3A%2F%2Ffonts.googleapis.com%2Fcss%3Ffamily%3DArchitects%2BDaughter;fontSize=20;" vertex="1" parent="1">
          <mxGeometry x="-90" y="280" width="640" height="80" as="geometry" />
        </mxCell>
        <mxCell id="X-iabtBRZktdST__aqZO-18" value="" style="rounded=1;whiteSpace=wrap;html=1;hachureGap=4;fontFamily=Architects Daughter;fontSource=https%3A%2F%2Ffonts.googleapis.com%2Fcss%3Ffamily%3DArchitects%2BDaughter;fontSize=20;" vertex="1" parent="1">
          <mxGeometry x="-90" y="190" width="640" height="80" as="geometry" />
        </mxCell>
        <mxCell id="X-iabtBRZktdST__aqZO-19" value="" style="rounded=1;whiteSpace=wrap;html=1;hachureGap=4;fontFamily=Architects Daughter;fontSource=https%3A%2F%2Ffonts.googleapis.com%2Fcss%3Ffamily%3DArchitects%2BDaughter;fontSize=20;" vertex="1" parent="1">
          <mxGeometry x="-90" y="460" width="640" height="80" as="geometry" />
        </mxCell>
        <mxCell id="X-iabtBRZktdST__aqZO-20" value="" style="rounded=1;whiteSpace=wrap;html=1;hachureGap=4;fontFamily=Architects Daughter;fontSource=https%3A%2F%2Ffonts.googleapis.com%2Fcss%3Ffamily%3DArchitects%2BDaughter;fontSize=20;" vertex="1" parent="1">
          <mxGeometry x="-90" y="550" width="640" height="80" as="geometry" />
        </mxCell>
        <mxCell id="X-iabtBRZktdST__aqZO-22" value="Data for teams" style="rounded=1;whiteSpace=wrap;html=1;" vertex="1" parent="1">
          <mxGeometry x="625" y="60" width="540" height="600" as="geometry" />
        </mxCell>
        <mxCell id="X-iabtBRZktdST__aqZO-23" value="player" style="rounded=1;whiteSpace=wrap;html=1;" vertex="1" parent="1">
          <mxGeometry x="880" y="100" width="50" height="50" as="geometry" />
        </mxCell>
        <mxCell id="X-iabtBRZktdST__aqZO-24" value="player" style="rounded=1;whiteSpace=wrap;html=1;" vertex="1" parent="1">
          <mxGeometry x="980" y="100" width="50" height="50" as="geometry" />
        </mxCell>
        <mxCell id="X-iabtBRZktdST__aqZO-25" value="player" style="rounded=1;whiteSpace=wrap;html=1;" vertex="1" parent="1">
          <mxGeometry x="1030" y="100" width="50" height="50" as="geometry" />
        </mxCell>
        <mxCell id="X-iabtBRZktdST__aqZO-28" value="player" style="rounded=1;whiteSpace=wrap;html=1;" vertex="1" parent="1">
          <mxGeometry x="1080" y="165" width="50" height="50" as="geometry" />
        </mxCell>
        <mxCell id="X-iabtBRZktdST__aqZO-29" value="player" style="rounded=1;whiteSpace=wrap;html=1;" vertex="1" parent="1">
          <mxGeometry x="1030" y="165" width="50" height="50" as="geometry" />
        </mxCell>
        <mxCell id="X-iabtBRZktdST__aqZO-30" value="player" style="rounded=1;whiteSpace=wrap;html=1;" vertex="1" parent="1">
          <mxGeometry x="1080" y="100" width="50" height="50" as="geometry" />
        </mxCell>
        <mxCell id="X-iabtBRZktdST__aqZO-31" value="player" style="rounded=1;whiteSpace=wrap;html=1;" vertex="1" parent="1">
          <mxGeometry x="930" y="100" width="50" height="50" as="geometry" />
        </mxCell>
        <mxCell id="X-iabtBRZktdST__aqZO-34" value="" style="ellipse;whiteSpace=wrap;html=1;aspect=fixed;" vertex="1" parent="1">
          <mxGeometry x="660" y="100" width="170" height="170" as="geometry" />
        </mxCell>
        <mxCell id="X-iabtBRZktdST__aqZO-35" value="Most Kills" style="text;html=1;strokeColor=none;fillColor=none;align=center;verticalAlign=middle;whiteSpace=wrap;rounded=0;" vertex="1" parent="1">
          <mxGeometry x="670" y="320" width="60" height="30" as="geometry" />
        </mxCell>
        <mxCell id="X-iabtBRZktdST__aqZO-36" value="Most Assists" style="text;html=1;strokeColor=none;fillColor=none;align=center;verticalAlign=middle;whiteSpace=wrap;rounded=0;" vertex="1" parent="1">
          <mxGeometry x="670" y="360" width="60" height="30" as="geometry" />
        </mxCell>
        <mxCell id="X-iabtBRZktdST__aqZO-37" value="Most Gold" style="text;html=1;strokeColor=none;fillColor=none;align=center;verticalAlign=middle;whiteSpace=wrap;rounded=0;" vertex="1" parent="1">
          <mxGeometry x="670" y="400" width="60" height="30" as="geometry" />
        </mxCell>
        <mxCell id="X-iabtBRZktdST__aqZO-40" value="Most damage" style="text;html=1;strokeColor=none;fillColor=none;align=center;verticalAlign=middle;whiteSpace=wrap;rounded=0;" vertex="1" parent="1">
          <mxGeometry x="670" y="440" width="60" height="30" as="geometry" />
        </mxCell>
      </root>
    </mxGraphModel>
  </diagram>
</mxfile>
